<svg xmlns="http://www.w3.org/2000/svg" xmlns:xlink="http://www.w3.org/1999/xlink" viewBox="0 0 2778.26 2775.23"><defs><style>.cls-1{fill:url(#linear-gradient);}.cls-2{fill:#bdd0fb;}.cls-3{fill:#91b3fa;}.cls-10,.cls-12,.cls-34,.cls-4,.cls-8{fill:#fff;}.cls-4{opacity:0.5;}.cls-5{opacity:0.85;}.cls-6{fill:url(#linear-gradient-2);}.cls-7{fill:url(#linear-gradient-3);}.cls-8{opacity:0.78;}.cls-12,.cls-9{opacity:0.6;}.cls-11{fill:url(#linear-gradient-4);}.cls-13{fill:url(#linear-gradient-5);}.cls-14{fill:url(#linear-gradient-6);}.cls-15{fill:url(#linear-gradient-7);}.cls-16{fill:url(#linear-gradient-8);}.cls-17{fill:url(#linear-gradient-9);}.cls-18{fill:url(#linear-gradient-10);}.cls-19{fill:url(#linear-gradient-11);}.cls-20{fill:url(#linear-gradient-12);}.cls-21{fill:url(#linear-gradient-13);}.cls-22{fill:url(#linear-gradient-14);}.cls-23{fill:url(#linear-gradient-15);}.cls-24{fill:url(#linear-gradient-16);}.cls-25{fill:url(#linear-gradient-17);}.cls-26{fill:url(#linear-gradient-18);}.cls-27{fill:url(#linear-gradient-19);}.cls-28{fill:url(#linear-gradient-20);}.cls-29{fill:url(#linear-gradient-21);}.cls-30{fill:url(#linear-gradient-22);}.cls-31{fill:url(#linear-gradient-23);}.cls-32{fill:url(#linear-gradient-24);}.cls-33{fill:url(#linear-gradient-25);}.cls-34{opacity:0.7;}.cls-35{fill:url(#linear-gradient-26);}.cls-36{fill:url(#linear-gradient-27);}.cls-37{fill:url(#linear-gradient-28);}.cls-38{fill:url(#linear-gradient-29);}.cls-39{fill:url(#linear-gradient-30);}.cls-40{fill:url(#linear-gradient-31);}.cls-41{fill:url(#linear-gradient-32);}.cls-42{fill:url(#linear-gradient-33);}.cls-43{fill:url(#linear-gradient-34);}.cls-44{fill:url(#linear-gradient-35);}.cls-45{fill:url(#linear-gradient-36);}.cls-46{fill:url(#linear-gradient-37);}.cls-47{fill:url(#linear-gradient-38);}</style><linearGradient id="linear-gradient" x1="2942.42" y1="3135.48" x2="906.67" y2="938.16" gradientUnits="userSpaceOnUse"><stop offset="0" stop-color="#dae3fe"/><stop offset="1" stop-color="#e9effd"/></linearGradient><linearGradient id="linear-gradient-2" x1="1651.82" y1="193.77" x2="-624.48" y2="3183.63" gradientTransform="matrix(1, 0.03, -0.03, 1, 299.77, 157.72)" gradientUnits="userSpaceOnUse"><stop offset="0" stop-color="#09005d"/><stop offset="1" stop-color="#1a0f91"/></linearGradient><linearGradient id="linear-gradient-3" x1="2680.52" y1="805.15" x2="707.63" y2="2700.54" gradientTransform="translate(-1232.83 580.28) rotate(-21.22)" gradientUnits="userSpaceOnUse"><stop offset="0" stop-color="#4f52ff"/><stop offset="1" stop-color="#4042e2"/></linearGradient><linearGradient id="linear-gradient-4" x1="538.02" y1="808.45" x2="15.11" y2="1700.93" gradientTransform="matrix(1, 0.03, -0.03, 1, 299.77, 157.72)" gradientUnits="userSpaceOnUse"><stop offset="0" stop-color="#fe7062"/><stop offset="1" stop-color="#ff928e"/></linearGradient><linearGradient id="linear-gradient-5" x1="986.54" y1="-348.43" x2="326.02" y2="520.47" xlink:href="#linear-gradient-2"/><linearGradient id="linear-gradient-6" x1="1059" y1="-293.36" x2="398.47" y2="575.55" xlink:href="#linear-gradient-2"/><linearGradient id="linear-gradient-7" x1="975.77" y1="-240.21" x2="519.68" y2="597.25" gradientTransform="matrix(1, 0.03, -0.03, 1, 299.77, 157.72)" xlink:href="#linear-gradient-3"/><linearGradient id="linear-gradient-8" x1="-317.53" y1="554.93" x2="-639.33" y2="950.54" gradientTransform="matrix(-0.99, -0.12, -0.12, 0.99, 1722.09, 653.58)" gradientUnits="userSpaceOnUse"><stop offset="0" stop-color="#febbba"/><stop offset="1" stop-color="#ff928e"/></linearGradient><linearGradient id="linear-gradient-9" x1="10849.94" y1="2721.47" x2="10957.33" y2="2721.47" gradientTransform="translate(-10063.17)" xlink:href="#linear-gradient-2"/><linearGradient id="linear-gradient-10" x1="10860.83" y1="2671.56" x2="10904.39" y2="2671.56" gradientTransform="translate(-10063.17)" gradientUnits="userSpaceOnUse"><stop offset="0" stop-color="#a22b25"/><stop offset="1" stop-color="#c0423c"/></linearGradient><linearGradient id="linear-gradient-11" x1="11078.33" y1="2719.75" x2="11246.83" y2="2719.75" gradientTransform="translate(-10063.17)" xlink:href="#linear-gradient-2"/><linearGradient id="linear-gradient-12" x1="11080.89" y1="2652.22" x2="11124.2" y2="2652.22" xlink:href="#linear-gradient-10"/><linearGradient id="linear-gradient-13" x1="2671.53" y1="1652.44" x2="2195.58" y2="1820.02" gradientTransform="matrix(1, 0, 0, 1, 0, 0)" xlink:href="#linear-gradient-2"/><linearGradient id="linear-gradient-14" x1="836.54" y1="2056.51" x2="896.96" y2="2056.51" gradientTransform="matrix(1, 0, 0, 1, 0, 0)" xlink:href="#linear-gradient-3"/><linearGradient id="linear-gradient-15" x1="1725.39" y1="142.53" x2="1604.71" y2="444.22" gradientTransform="matrix(1, 0, 0, 1, 0, 0)" xlink:href="#linear-gradient-3"/><linearGradient id="linear-gradient-16" x1="11370.7" y1="1383.89" x2="11531.68" y2="1383.89" xlink:href="#linear-gradient-10"/><linearGradient id="linear-gradient-17" x1="1144.39" y1="1712.15" x2="872.86" y2="2576.99" gradientTransform="matrix(1, 0, 0, 1, 0, 0)" xlink:href="#linear-gradient-3"/><linearGradient id="linear-gradient-18" x1="11774.31" y1="1375.78" x2="11380.62" y2="1865.57" xlink:href="#linear-gradient-10"/><linearGradient id="linear-gradient-19" x1="11763.66" y1="1532.34" x2="11538.92" y2="1811.95" xlink:href="#linear-gradient-10"/><linearGradient id="linear-gradient-20" x1="11343.89" y1="1157.46" x2="11007.01" y2="1776.45" xlink:href="#linear-gradient-10"/><linearGradient id="linear-gradient-21" x1="8914.66" y1="10033.72" x2="8765.78" y2="10230.68" gradientTransform="translate(-11895.17 -1784.96) rotate(-35.22)" xlink:href="#linear-gradient-10"/><linearGradient id="linear-gradient-22" x1="8800.96" y1="10081.23" x2="8978.8" y2="10081.23" gradientTransform="translate(-11895.17 -1784.96) rotate(-35.22)" xlink:href="#linear-gradient-2"/><linearGradient id="linear-gradient-23" x1="8696.6" y1="10189.69" x2="8816.02" y2="10067.18" gradientTransform="translate(-11895.17 -1784.96) rotate(-35.22)" xlink:href="#linear-gradient-10"/><linearGradient id="linear-gradient-24" x1="1229.7" y1="1938.81" x2="1797.76" y2="1279.46" gradientTransform="translate(1375.17 -886.6) rotate(43.24)" xlink:href="#linear-gradient-4"/><linearGradient id="linear-gradient-25" x1="2118.75" y1="798.55" x2="438.99" y2="3336.19" gradientTransform="translate(1375.17 -886.6) rotate(43.24)" xlink:href="#linear-gradient-4"/><linearGradient id="linear-gradient-26" x1="1275.25" y1="421.22" x2="423.42" y2="1851.3" gradientTransform="translate(1015.34 263.28) rotate(13.42)" xlink:href="#linear-gradient-4"/><linearGradient id="linear-gradient-27" x1="-582.39" y1="0.3" x2="-665.13" y2="511.01" gradientTransform="translate(3764)" xlink:href="#linear-gradient-3"/><linearGradient id="linear-gradient-28" x1="-1405.51" y1="3055.32" x2="-1289.91" y2="1704.21" gradientTransform="translate(3764)" xlink:href="#linear-gradient-8"/><linearGradient id="linear-gradient-29" x1="-922.04" y1="-54.72" x2="-1004.78" y2="455.98" gradientTransform="translate(3764)" xlink:href="#linear-gradient-3"/><linearGradient id="linear-gradient-30" x1="-1172.97" y1="3075.42" x2="-1057.34" y2="1723.96" gradientTransform="translate(3764)" xlink:href="#linear-gradient-8"/><linearGradient id="linear-gradient-31" x1="3068.09" y1="1484.73" x2="1871.39" y2="2641.21" gradientTransform="matrix(1, 0, 0, 1, 0, 0)" xlink:href="#linear-gradient-2"/><linearGradient id="linear-gradient-32" x1="403.89" y1="182.12" x2="192.87" y2="432.87" gradientTransform="translate(2390.12 908.74) rotate(16.22)" xlink:href="#linear-gradient-2"/><linearGradient id="linear-gradient-33" x1="2893.02" y1="1652.62" x2="4793.66" y2="1542" gradientTransform="matrix(1, 0, 0, 1, 0, 0)" xlink:href="#linear-gradient-3"/><linearGradient id="linear-gradient-34" x1="98.32" y1="624.21" x2="115.51" y2="502.14" gradientTransform="translate(2390.12 908.74) rotate(16.22)" xlink:href="#linear-gradient-8"/><linearGradient id="linear-gradient-35" x1="19.5" y1="362.65" x2="180.25" y2="547.48" gradientTransform="translate(2390.12 908.74) rotate(16.22)" xlink:href="#linear-gradient-8"/><linearGradient id="linear-gradient-36" x1="302.82" y1="97.07" x2="91.79" y2="347.82" gradientTransform="translate(2390.12 908.74) rotate(16.22)" xlink:href="#linear-gradient-2"/><linearGradient id="linear-gradient-37" x1="59.66" y1="327.72" x2="220.41" y2="512.54" gradientTransform="translate(2390.12 908.74) rotate(16.22)" xlink:href="#linear-gradient-8"/><linearGradient id="linear-gradient-38" x1="2188.17" y1="1625.63" x2="2838.98" y2="881.2" gradientTransform="matrix(-0.34, -0.94, -0.94, 0.34, 4385.45, 3343.62)" xlink:href="#linear-gradient-8"/></defs><title>Asset 1</title><g id="Layer_2" data-name="Layer 2"><g id="Illustration"><path class="cls-1" d="M2658.8,1883.28C2379.06,2537.08,1640.63,2817.9,1062.05,2770c-158-13.07-475.82-39.38-724-274.05C-138.56,2045.31-65.16,1103.3,391.1,548.69,449.85,477.27,856.55-1.25,1490.31,5.16c464,4.69,789.7,266.77,829.3,299.42,50,41.25,160.37,139.26,259.81,294.75C2813.08,964.69,2833.62,1474.73,2658.8,1883.28Z"/><path class="cls-2" d="M1860.51,580.72c43.85-64.37,283.82-11.44,348.52-163.57l-70.83-150.9s-132.86,160.5-223.7,177.45-80.73-41.95-35.29-75.18,203.72-70.14,223-136.87c0,0,14.88-53-56.37-58.51S1920.43,54.67,1922.65,0c0,0-21.67,23.71-95.93,54.22s-151.18,55.9-129,124.89,85.07,144.76,52.73,175.54S1575,271.39,1629.2,137.73c0,0-121.8,39.52-140.23,75s1.78,111.78,95.08,169.35,118.79,111.89,94.53,135-269.77-184.38-218.37-290.82c0,0-179.74,156.93-189.71,185.53S1360.9,537.92,1443.62,573,1564.52,689.37,1557,723.17s-74.67-59.42-124.61-82.77-197.16-195.79-197.16-195.79,6.89,31.3-45.88,93.3-103.43,194.93-59.88,221.28,273.89,110.1,332.47,160.16,95,102.69,50.19,98.6-121.4-67.6-189.74-96.9-253.3-82.84-261.51-133.57c0,0-94.64,197.08,40.33,351.74,0,0,106.36,27.25,205.1-3.25s141.58-38.91,163-10-47,49.35-109,66.76-205.37,60.8-245.64,33.17c0,0,216.75,220.91,390.47,101,162.93-112.47,165.08-143.77,164.72-147.23,2.26,12.75,74,397.78,453,175.75,0,0-100.63,26.48-145.25-27s-162.79-89.34-129.19-125.74S2043.51,1361,2143.54,1325s168.4-183.33,116.55-288.54c0,0-66.36,71.53-172.16,53.77s-243.58-70.44-167.58-107.87,341,58.89,397.81,15.44-4.58-287.52-4.58-287.52-28,24.85-146.65,68.83-262.56,69.54-250.86,36.32,106.82-43.29,191.51-55.5,178.87-71.12,174.69-116.38S2231,464,2231,464,2090.4,550.46,2030.57,595.8,1816.65,645.1,1860.51,580.72Zm-86.39,480.07c-102.65,5.19-41.72-56.7,8.44-89.62C1820.64,946.18,1876.77,1055.6,1774.12,1060.79Zm30.13-192.92c-67.83,5-87.67-24.12-58.83-48.54C1811.68,763.2,1872.08,862.87,1804.25,867.87Zm8-207.32c-36.61,5.08-51.88-2.53-34.77-40.84S1848.81,655.48,1812.21,660.55Z"/><path class="cls-3" d="M1034.92,2688.66s647-1487.76,1561.92-2198.55c61.5-47.78,151.51-9,158.48,68.61C2801.92,1077.41,2792.46,2623.63,1034.92,2688.66Z"/><path class="cls-4" d="M1201.44,2618.88c-4.3,2.92-.48,9.44,4.17,7.12C1377,2540.68,2061,2093,2474.55,1030.37c1.33-3.41-3.63-5.69-5.25-2.41C2350.06,1270.08,1880.94,2157.58,1201.44,2618.88Z"/><g class="cls-5"><path class="cls-2" d="M1039.47,1788.41S990,701.27,586.67,37C559.56-7.71,493.86-4.91,470.94,42,317.64,355.92-46.37,1327.16,1039.47,1788.41Z"/><path class="cls-4" d="M948.52,1701.7a2.88,2.88,0,0,1-4.49,3.59c-90.29-98-423.87-558.95-429-1352.59a2,2,0,0,1,4-.26C536.47,539.48,621.18,1233,948.52,1701.7Z"/></g><path class="cls-3" d="M884.55,1886.32S735,751.58,252.73,91.68c-32.42-44.36-101-35.53-120.81,15.72C-.53,450.09-294.71,1500.53,884.55,1886.32Z"/><path class="cls-4" d="M781.45,1803.63a3,3,0,0,1-4.37,4.17C673.65,1713.17,282.7,1260.16,206,429c-.25-2.67,3.7-3.27,4.18-.64C245.27,622.78,396.35,1341.94,781.45,1803.63Z"/><path class="cls-6" d="M142.09,472.47A168.87,168.87,0,0,1,315.2,308l1435.59,36.6a148.77,148.77,0,0,1,144.93,145l52.91,2084A109.71,109.71,0,0,1,1838.16,2686L192,2674A104.14,104.14,0,0,1,88.69,2567.21Z"/><path class="cls-2" d="M433.4,2645h-.06l-184-7.07c-61.69-2.37-110.59-54.51-109-116.22l7.08-278a4.2,4.2,0,0,1,4.31-4.09h0a4.21,4.21,0,0,1,4.1,4.31l-7.09,278c-1.46,57.14,43.83,105.41,100.94,107.61l184.05,7.07a4.21,4.21,0,0,1-.27,8.41Z"/><path class="cls-2" d="M153.65,2162a4.2,4.2,0,0,1-4.09-4.31l1.15-45a4.2,4.2,0,0,1,4.3-4.1h0a4.2,4.2,0,0,1,4.09,4.31l-1.15,45a4.21,4.21,0,0,1-4.31,4.1Z"/><path class="cls-7" d="M263.19,338.7a49,49,0,0,1,56.86-47.49c195.36,31.58,867.4,131,1425.87,102.41a45.35,45.35,0,0,1,47.73,44l57.82,2093.44a52.2,52.2,0,0,1-50.42,53.63c-234.77,7.89-1201.55,36.91-1545-7.94a41.36,41.36,0,0,1-35.95-41.85Z"/><path class="cls-2" d="M284.94,391.67A47.21,47.21,0,0,1,339.66,346c188,30.4,834.75,126.06,1372.18,98.56a43.65,43.65,0,0,1,45.94,42.35l55.64,2014.61a50.23,50.23,0,0,1-48.52,51.61c-225.93,7.6-1156.31,35.52-1486.8-7.63a39.8,39.8,0,0,1-34.6-40.28Z"/><path class="cls-8" d="M455.63,551.24l9.05,431.84a27.42,27.42,0,0,0,25.94,26.83c79.82,4.29,328.59,16.71,469.32,13A30.64,30.64,0,0,0,989.7,994c4.74-80.82,16.61-316.1.68-415a34.56,34.56,0,0,0-32.09-28.94L486.55,521.52A29.17,29.17,0,0,0,455.63,551.24Z"/><circle class="cls-3" cx="723.39" cy="712.37" r="92.75" transform="translate(-291.85 720.17) rotate(-45)"/><path class="cls-3" d="M575.61,981,871,988.54c18.11.47,29.47-19.26,20.1-34.76C867,913.87,816,854.86,725,855.14c-87.69.28-141,51.05-168,87.75C545.51,958.47,556.26,980.52,575.61,981Z"/><g class="cls-9"><path class="cls-10" d="M1639.37,619a13,13,0,0,0,13.35-13.07v-2.15a14.22,14.22,0,0,0-13.44-14l-524.36-22.72c-7.36-.32-11.53,5.15-9.26,12.17l4.4,13.6c2.28,7,10.16,12.91,17.54,13.1Z"/></g><g class="cls-9"><path class="cls-10" d="M1112.86,647.47c-7.36-.31-11.53,5.16-9.26,12.18l4.4,13.6c2.28,7,10.17,12.91,17.54,13.1l511.78,13a13,13,0,0,0,13.35-13.07v-2.15a14.22,14.22,0,0,0-13.44-14Z"/></g><g class="cls-9"><path class="cls-10" d="M1110.78,729.05c-7.36-.32-11.53,5.16-9.26,12.18l4.4,13.6c2.28,7,10.17,12.91,17.54,13.1l511.78,13a13,13,0,0,0,13.35-13.06v-2.15a14.23,14.23,0,0,0-13.44-14Z"/></g><g class="cls-9"><path class="cls-10" d="M1675.5,1175.67a12.41,12.41,0,0,0,12.86-13.05l-.09-2.2a14.69,14.69,0,0,0-13.94-13.84L454.77,1105.87c-7.37-.25-9.77,4.36-5.32,10.25l13.71,18.15c4.45,5.89,14.12,10.85,21.49,11Z"/></g><g class="cls-9"><path class="cls-10" d="M452.72,1186.28c-7.37-.25-9.77,4.36-5.32,10.25l13.71,18.15c4.45,5.89,14.12,10.85,21.49,11l1190.85,30.36a12.41,12.41,0,0,0,12.86-13l-.09-2.2a14.69,14.69,0,0,0-13.94-13.84Z"/></g><path class="cls-10" d="M606.72,1501.26h-.26l-102.35-3.6c-14.76-.51-26.69-11-27.75-24.37l-6.8-86.12a18.94,18.94,0,0,1,4.83-14.13,22.73,22.73,0,0,1,16.05-7.42h0c8.64-.37,20.81-1.09,33.7-1.86,28.55-1.7,60.91-3.63,79.89-3.38,13.75.2,25.45,8.81,28.41,21,4.85,19.9,3.42,57.23,1.39,97C633.16,1491.41,621,1501.64,606.72,1501.26ZM490.8,1374a14.28,14.28,0,0,0-10.12,4.59,10.61,10.61,0,0,0-2.74,7.9l6.81,86.12c.72,9.11,9.17,16.26,19.66,16.63l102.35,3.59h.18c9.78.26,18.06-6.41,18.5-14.94,2-39.1,3.41-75.76-1.17-94.57-2-8.22-10.4-14.31-20-14.56h-.31c-18.67-.24-52.28,1.76-79.28,3.37-12.92.77-25.13,1.5-33.84,1.87Z"/><g class="cls-9"><path class="cls-10" d="M703.89,1414.36c-7.37-.21-12,5.49-10.32,12.67l6,25.41c1.69,7.17,9.12,13.13,16.49,13.24l935.54,14.06a13.25,13.25,0,0,0,13.45-13.2l0-11.4a13.85,13.85,0,0,0-13.35-13.79Z"/></g><path class="cls-11" d="M505.59,1396.48h0a15.72,15.72,0,0,1,21.53,6.45l19.27,36.71a5,5,0,0,0,9-.16l52.93-110.23c2.64-5.5,10.87-3.4,10.63,2.69-1.38,34.09-12.08,98.69-68,151.57,0,0-29.74-12.44-52.57-66.16A16.49,16.49,0,0,1,505.59,1396.48Z"/><path class="cls-10" d="M601.12,1720.67h-.25l-102.35-3.6c-14.76-.51-26.69-11-27.75-24.37L464,1606.58a18.94,18.94,0,0,1,4.84-14.13,22.75,22.75,0,0,1,16.05-7.42h0c8.64-.37,20.81-1.09,33.7-1.86,28.55-1.7,60.91-3.63,79.89-3.38,13.73.22,25.45,8.81,28.41,21,4.84,19.9,3.42,57.23,1.39,97C627.57,1710.82,615.43,1721.05,601.12,1720.67ZM485.21,1593.43a14.32,14.32,0,0,0-10.12,4.59,10.62,10.62,0,0,0-2.75,7.9l6.81,86.12c.72,9.12,9.18,16.27,19.67,16.63l102.34,3.6h.19c9.78.26,18.06-6.41,18.49-14.94,2-39.1,3.42-75.76-1.16-94.56-2-8.23-10.4-14.31-20-14.57h-.31c-18.67-.25-52.28,1.75-79.28,3.36-12.92.77-25.13,1.5-33.84,1.87Z"/><path class="cls-12" d="M496,1602.31c21.55-.92,68.41-4.48,90.59-4.19,9.39.12,17.49,6,19.48,14.21,3.88,15.93,2.51,47.45,1,76.53-.44,8.71-8.62,15.47-18.4,15.12l-81.79-2.87c-10.05-.35-18.23-7.42-18.94-16.38l-5.44-68.82C481.93,1608.79,488,1602.65,496,1602.31Z"/><g class="cls-9"><path class="cls-10" d="M698.29,1633.77c-7.37-.21-12,5.49-10.31,12.67l6,25.41c1.7,7.17,9.12,13.13,16.5,13.25L1646,1699.15a13.26,13.26,0,0,0,13.46-13.2l0-11.4a13.86,13.86,0,0,0-13.35-13.79Z"/></g><path class="cls-10" d="M595.53,1940.09h-.25l-102.35-3.59c-14.76-.52-26.69-11-27.75-24.37L458.37,1826a18.94,18.94,0,0,1,4.83-14.13,22.74,22.74,0,0,1,16.05-7.41h0c8.63-.37,20.78-1.1,33.64-1.86,27.16-1.62,61-3.64,80-3.39,13.74.12,25.45,8.82,28.42,21,4.84,19.89,3.41,57.23,1.39,97C622,1930.23,609.84,1940.46,595.53,1940.09Zm-2.48-132.48h-.32c-18.68-.25-52.31,1.76-79.33,3.37-12.91.77-25.09,1.49-33.78,1.86h0a14.33,14.33,0,0,0-10.11,4.6,10.55,10.55,0,0,0-2.75,7.89l6.81,86.12c.72,9.12,9.17,16.27,19.66,16.64l102.35,3.59h.18c9.79.26,18.07-6.41,18.5-14.94,2-39.11,3.41-75.77-1.16-94.56C611.09,1814,602.69,1807.87,593.05,1807.61Z"/><path class="cls-12" d="M490.39,1821.72c21.54-.92,68.41-4.48,90.58-4.19,9.4.13,17.49,6,19.49,14.21,3.88,15.93,2.5,47.45,1,76.54-.44,8.71-8.63,15.46-18.4,15.12l-81.79-2.88c-10.06-.35-18.24-7.42-18.94-16.38l-5.45-68.82C476.34,1828.2,482.4,1822.06,490.39,1821.72Z"/><g class="cls-9"><path class="cls-10" d="M692.7,1853.19c-7.37-.21-12,5.49-10.31,12.66l6,25.41c1.7,7.18,9.12,13.14,16.49,13.25l935.54,14.06a13.28,13.28,0,0,0,13.46-13.21l0-11.4a13.87,13.87,0,0,0-13.36-13.79Z"/></g><path class="cls-10" d="M589.94,2159.5h-.26l-102.35-3.59c-14.76-.52-26.69-11-27.74-24.37l-6.82-86.13a19,19,0,0,1,4.84-14.12,22.75,22.75,0,0,1,16.05-7.42c8.62-.37,20.77-1.1,33.64-1.86,27.16-1.62,61-3.63,79.95-3.38,13.65.17,25.45,8.8,28.41,21,4.84,19.89,3.42,57.23,1.39,97C616.39,2149.65,604.25,2159.88,589.94,2159.5ZM587.46,2027h-.32c-18.69-.24-52.32,1.76-79.34,3.37-12.9.77-25.09,1.49-33.78,1.87h0a14.3,14.3,0,0,0-10.12,4.59,10.64,10.64,0,0,0-2.75,7.89l6.82,86.13c.72,9.11,9.17,16.26,19.66,16.63L590,2151.09h.18c9.78.26,18.06-6.41,18.5-14.94,2-39.11,3.41-75.78-1.16-94.57C605.49,2033.37,597.1,2027.28,587.46,2027Z"/><path class="cls-12" d="M484.8,2041.13c21.54-.92,68.4-4.47,90.58-4.19,9.4.13,17.49,6,19.49,14.21,3.87,15.93,2.5,47.45,1,76.54-.45,8.71-8.63,15.46-18.4,15.12l-81.79-2.87c-10.06-.36-18.24-7.43-18.95-16.39l-5.44-68.82C470.75,2047.61,476.81,2041.47,484.8,2041.13Z"/><g class="cls-9"><path class="cls-10" d="M687.11,2072.6c-7.37-.21-12,5.49-10.32,12.66l6,25.41c1.69,7.18,9.12,13.14,16.49,13.25L1634.84,2138a13.26,13.26,0,0,0,13.45-13.21l0-11.4a13.85,13.85,0,0,0-13.35-13.78Z"/></g><path class="cls-13" d="M1129.27,44.75c-50.94-37.39-96-37.83-128-29.27a63.32,63.32,0,0,0-46.66,65.41l9.88,149.76L1127,249.26S1229.16,118.09,1129.27,44.75Zm-74.71,118.71a40.63,40.63,0,1,1,41.65-39.58A40.63,40.63,0,0,1,1054.56,163.46Z"/><path class="cls-2" d="M982.32,168.49a4.2,4.2,0,0,1-4.07-3.93l-1.58-23.85a4.2,4.2,0,0,1,8.39-.55L986.63,164a4.21,4.21,0,0,1-3.91,4.47Zm-3.08-46.74a4.2,4.2,0,0,1-4.08-3.92L974,99.72a60.72,60.72,0,0,1,44.66-62.6,122.15,122.15,0,0,1,59.72-.93,4.2,4.2,0,1,1-1.89,8.19,113.82,113.82,0,0,0-55.66.86,52.29,52.29,0,0,0-38.45,53.92l1.2,18.11a4.2,4.2,0,0,1-3.92,4.47Z"/><path class="cls-14" d="M739.69,321.54l1.92-75.12a45.85,45.85,0,0,1,48.57-44.6l517.45,30.94a44.61,44.61,0,0,1,41.91,43L1352,348Z"/><path class="cls-2" d="M912.88,233.54a4.2,4.2,0,0,1,.22-8.4l22.27.56h0a4.21,4.21,0,1,1-.21,8.41l-22.28-.57Z"/><path class="cls-2" d="M768.31,298.93a4.21,4.21,0,0,1-4.09-4.3l.78-30.39a42.91,42.91,0,0,1,43.94-41.76l81.89,2.09h0a4.2,4.2,0,0,1-.22,8.4l-81.88-2.09a34.51,34.51,0,0,0-35.33,33.57l-.77,30.39a4.2,4.2,0,0,1-4.31,4.09Z"/><path class="cls-15" d="M578.11,289.91,1483.76,313a67,67,0,0,1,64.55,57.2l.65,4.45a57.51,57.51,0,0,1-58.36,65.85L561.46,416.78a37.38,37.38,0,0,1-36.33-40.12l3-41.53A48.82,48.82,0,0,1,578.11,289.91Z"/><path class="cls-16" d="M1998.6,1355.8a5,5,0,0,1,9.24,1c4.48,16.12,15.32,44.25,38.06,54.24,1.15.5,2.23,1,3.28,1.52a11.57,11.57,0,0,0-1.42-10.46c-7.08-10.8,5.69-25.56,5.69-25.56s.85,13,10.73,21.18c8.51,7,12.6,22.74,6.78,35.61-12.31,47.82-30.75,111.06,41.06,157.27s172.93-87.2,172.93-87.2l-50.19,159.11s-77.47,57.17-167.58-23.22-30.38-197.36-30.38-197.36S1968.07,1414.18,1998.6,1355.8Z"/><path class="cls-17" d="M801.72,2683.63s-11.94,18.81-14.94,71.47a8.58,8.58,0,0,0,8.52,9.09h93.34a5.5,5.5,0,0,0,5.23-7.24c-5.47-16.18-22-55.65-58.9-78.2Z"/><path class="cls-18" d="M797.66,2647.94l5.28,44.26a8.34,8.34,0,0,0,7.27,7.32,73.68,73.68,0,0,0,19.74-.19,13.67,13.67,0,0,0,11.27-13.56V2643Z"/><path class="cls-19" d="M1032.64,2678.75s-17.86,27.76-17.48,65.88a16.49,16.49,0,0,0,16.58,16.13h145a6.94,6.94,0,0,0,4-12.62c-27.43-19.27-81.34-55.25-120.34-69.39Z"/><path class="cls-20" d="M1017.71,2630.94l11.26,54.67a11.27,11.27,0,0,0,13.34,8.87,40.86,40.86,0,0,0,12.74-5.33,12.94,12.94,0,0,0,5.78-13.21l-11.65-66.23Z"/><path class="cls-21" d="M818.34,1870.87s-39.15,34.52-46.51,76S792.7,2663.4,792.7,2663.4s39.15,6.52,59.33-5.71c0,0,23.94-438.05,42.13-539.27,0,0,95.42,453.76,121.86,535.75,0,0,37.71,4.59,49.88-2.59,0,0-25-588.2-56.4-692.77Z"/><path class="cls-22" d="M893,2103.86a3.79,3.79,0,0,0,1-.13,3.92,3.92,0,0,0,2.81-4.79l-16.63-63.79a4,4,0,0,0-1.68-2.32l-35.93-23a3.93,3.93,0,0,0-4.24,6.62L873,2038.62l16.24,62.3A3.92,3.92,0,0,0,893,2103.86Z"/><path class="cls-23" d="M1204.7,1480.86c-164.81-13.68-207.89,20.43-207.89,20.43l79.2,125s162-3.2,278-92.64c-21.72-23.39-36.8-49.23-46.48-69.36C1277.6,1476.76,1243.14,1484.06,1204.7,1480.86Z"/><path class="cls-24" d="M1462.79,1238.94a5.05,5.05,0,0,0-9.62-1.93l-21,44.88a46.72,46.72,0,0,0-3.73,27.81l7.37,26.12a45.1,45.1,0,0,1-9.19,35.89c-19.32,24.15-60.48,68.27-119.07,92.62,9.68,20.13,24.76,46,46.48,69.36,42.57-32.81,79-77.23,98.93-137.37a22.06,22.06,0,0,0,15.56-21.92Z"/><path class="cls-25" d="M1259,1553.36c-58-62.52-168.54-90.77-232.52-102.37a58.69,58.69,0,0,0-65.6,37.22C932,1565.61,853.72,1767,838.54,1801.6c-12.45,28.39-25.45,56.13-33.71,73.46a20.81,20.81,0,0,0,9.71,27.74c53.83,26,150.7,55.3,190,66.76a13.47,13.47,0,0,0,17.24-13,42.05,42.05,0,0,1,6-21.66l148.73-247.85c92.7,102.79,173.89,112.19,236.25,89.69a468.83,468.83,0,0,1-20.64-97.41C1300,1663.58,1259,1553.36,1259,1553.36Z"/><path class="cls-26" d="M1570.31,1643.93l-30.12-17.6c-53.83,37-111.27,59.35-148.1,53a468.83,468.83,0,0,0,20.64,97.41C1494.89,1747.13,1570.31,1643.93,1570.31,1643.93Z"/><path class="cls-27" d="M1713.35,1650.27c-18.73-10.19-74.31-19-74.31-19s-63.88-37.38-82.27-44.73c-15.28-6.11-21.85,16.73-23.64,24.65-.37,1.61-.53,2.61-.53,2.61L1535,1629l64.54,28.68a82.12,82.12,0,0,0,44,6.39l68.91-9a2.58,2.58,0,0,0,.89-4.82Z"/><path class="cls-28" d="M1114.44,1336.17,1065,1456.77s56.79,39.31,102.48,35.57l24.67-108.45Z"/><path class="cls-29" d="M1197.92,1254c1.14,1.6,35.76,126.68,35.76,126.68l-71.84,18.25-50.43-113.67S1179,1227.1,1197.92,1254Z"/><path class="cls-30" d="M1138.46,1302.48l21.86,61.92a9.71,9.71,0,0,0,1.14,2.22c3,4.21,14.24,18,27.61,5.58,12.13-11.24,23.36-21.32,33.74-23.15a9.17,9.17,0,0,1,10.44,6.58c3.14,11.37,9.75,37.11,12.08,60.35a9.15,9.15,0,0,1-7.44,9.86c-14,2.66-43.78,7.46-68.62,5.7a9.15,9.15,0,0,1-7.73-5.32c-6.84-15-27.81-60.33-35.61-72.07-7.32-11-25.27-10.72-32.8-10.05a9,9,0,0,1-6.75-2.21c-6.59-5.77-19.12-20.5-1.49-38.14a9.2,9.2,0,0,0-.21-13.23c-7.57-7.11-15.67-19.74-3.06-35.39,12.82-15.92,29.74-13.38,40.11-9.6a9.18,9.18,0,0,0,11-4.08c1.29-2.19,3.56-3.84,7.48-3.5a9,9,0,0,0,9.64-9.26c-.18-10.2,3.47-23.08,21.15-28.58,31.38-9.77,51,20.55,52.89,43.17s-32.69,31.28-53,29.75c-15.48-1.16-27,14.18-31.59,21.61A9.1,9.1,0,0,0,1138.46,1302.48Z"/><path class="cls-31" d="M1134.11,1376.61s-5.07-39.27-21.41-41.2-32.24,11.51-16,33.55C1116.91,1396.38,1134.11,1376.61,1134.11,1376.61Z"/><circle class="cls-32" cx="1825.76" cy="1275.14" r="423.5" transform="translate(-366.91 1664.49) rotate(-45)"/><circle class="cls-33" cx="1825.76" cy="1275.14" r="409.41" transform="translate(-366.91 1664.49) rotate(-45)"/><path class="cls-34" d="M1483.32,1123.16a7.63,7.63,0,0,1-7.15-10.87c62-132.77,191.39-218,337.74-222.55a388.8,388.8,0,0,1,69.71,4.13,7.64,7.64,0,0,1-2.27,15.11,373.11,373.11,0,0,0-67-4c-140.55,4.32-264.84,86.22-324.36,213.73A7.62,7.62,0,0,1,1483.32,1123.16Z"/><circle class="cls-8" cx="1834.95" cy="1283.78" r="346.52" transform="translate(-370.33 1673.52) rotate(-45)"/><path class="cls-35" d="M1808.88,1542.31l-1.16-37.68c-39.33-.37-78.47-8.44-106.44-19.67a21.81,21.81,0,0,1-12.83-25.38l8.49-35.4a22,22,0,0,1,29.38-15.29c27.73,10.63,61.81,18.67,98.25,17.55,37.84-1.16,65.66-14.86,64.85-41.15-.73-23.73-23-37.16-76-49.65-75.66-18.22-130.54-49.27-132.57-115.32-1.83-59.64,40.38-106.51,115.67-121l-1.16-37.69a22,22,0,0,1,21.29-22.63l22.14-.68a22,22,0,0,1,22.63,21.28l1,33.84c36.39.34,63,5.74,84.27,12.47a21.87,21.87,0,0,1,14.46,26l-7.81,32.73a21.9,21.9,0,0,1-28.45,15.67,228.87,228.87,0,0,0-82.65-12.39c-44.89,1.38-57.14,20.37-56.63,37,.63,20.52,28,33.8,86.91,50,84.13,22.44,119.82,56,121.74,118.21,1.75,57.07-39,109.68-120.68,125l1.29,42.17a22,22,0,0,1-21.28,22.63l-22.14.68A22,22,0,0,1,1808.88,1542.31Z"/><path class="cls-36" d="M2698,2719.27l4.57,37.56a15.53,15.53,0,0,0,13.61,13.58c12,1.37,31.37,2.78,50.27.78a13.28,13.28,0,0,0,11.16-17.23c-4.61-14.5-13-36.27-25.19-49.08h-41.67A12.84,12.84,0,0,0,2698,2719.27Z"/><path class="cls-37" d="M2371.66,2279.25l-7,41.37s23.55,238.56,27.74,334a74.79,74.79,0,0,1-11.06,42.5l-41,66.5,104.08-61.42,2.08-12.7-17-23.42,22.31-267.25a81.89,81.89,0,0,0-9.33-45.36L2420.93,2313Z"/><path class="cls-38" d="M2333.5,2773.24h33.21a20,20,0,0,0,15.87-7.78c10.36-13.45,31.81-39.7,42.07-40.39,13.81-.92,12,48.17,12,48.17h7.74l9.81-61a36.1,36.1,0,0,0-18.95-37.74h0s-3.16,23.34-20.27,33.67-69.66,47.3-69.66,47.3a47.33,47.33,0,0,0-13.5.36C2321.38,2757.73,2322.85,2773.24,2333.5,2773.24Z"/><path class="cls-39" d="M2514.22,2298.9s138,261.72,159.91,321.48S2703.74,2730,2704,2734.71c.46,7.37,9.63,14.45,34.92,14.45,13.05,0,19.45-5.23,22.58-10.3a14.74,14.74,0,0,0,.55-14.28c-8-16.15-33.31-67.77-42.69-91.18-11.2-28-35.29-154.63-48.5-198.67s-28.15-91.82-85.68-135.83C2585.22,2298.9,2545.72,2260.21,2514.22,2298.9Z"/><path class="cls-40" d="M2506,1944.71c-14.48-43.63-79.68-91.52-79.68-91.52-65.7,39.46-128.19,20.25-128.19,20.25s-7.66,58.31,1.31,104.46,65.22,342.72,65.22,342.72c88.64,18,225-18.07,225-18.07C2533.14,2202.31,2520.45,1988.35,2506,1944.71Z"/><path class="cls-41" d="M2307.22,1262.1s-20.81-93.31,86.09-68.61c0,0,51.89-8.48,54.52,40.49,0,0,33.45,22,9,64.43,0,0,99.4-38.4,142.71,48.73s3.5,135.06-38.23,147.55c0,0,33.81,17,17.8,55.31s-97.05,65.36-144.93,18.74c0,0-136.23,18-133.51-78.23,0,0-63.36-40.91,3.19-120.44S2307.22,1262.1,2307.22,1262.1Z"/><path class="cls-42" d="M2301.3,1478.42a144,144,0,0,1,56.9-4.8c59.76,6.88,99.29,65.55,85.69,124.15-17.85,76.92-39.33,201.24-9.59,261.74,0,0-65.14,71.8-136.2,13.93,0,0-31.89-139-73.65-200-28.82-42.1,45.91-158.06,64.88-186.16A22.22,22.22,0,0,1,2301.3,1478.42Z"/><path class="cls-43" d="M2360.66,1361.54s31.76,89.86,34.15,129.5c0,0-35.11,16-68.19-11,0,0-3.47-89.76-8.49-105.83Z"/><path class="cls-44" d="M2316.53,1239s-83.09,116.28-33.42,150.06,108.82-48.86,108.82-48.86,19.28-63.65-.88-85.24S2316.53,1239,2316.53,1239Z"/><path class="cls-45" d="M2355,1211.23s-38.17,9-43.52,26.32,54.13,33.29,70.79,34.07l13.43,69.69s39.7-65.56,24-103.42S2355,1211.23,2355,1211.23Z"/><path class="cls-46" d="M2375.82,1331.66s32.34-37.45,45.2-13-29.11,42.75-43.64,30.77Z"/><path class="cls-47" d="M2411,1618.52s-31.1,104.53-122,179.75-221.74-63.91-221.74-63.91,5.62-39.87-41.46-65.55c-25.89-14.12,72.67-11,87.54,18.19s-15.06,27.53,24.78,59c38.89,30.75,126.11,25.81,158.37-121.11,1.81-8.24,12.65-53.55,18.19-59.91C2354.38,1519.47,2413.34,1571.6,2411,1618.52Z"/><path class="cls-10" d="M2597.39,890.45c-18.43,60.44-53.7,83-82.62,74.14-29.57-9-44.2-47.22-27.72-102.47,16.54-54.27,50.5-83,83-73.07C2603.52,799.25,2613.12,838.83,2597.39,890.45ZM2478.7,1085.24,2691.58,826.1l22.75,6.93-212.88,259.14Zm39.43-215.58c-10.41,33-9,59.94,6.89,64.79s30.71-15.71,41.34-50.57c9.68-31.76,11-59.33-6.24-64.58C2543.87,814.34,2528,837.46,2518.13,869.66ZM2706.65,1054c-18.29,60-53.37,83.06-82.62,74.14s-44.2-47.23-27.25-102.82c16.4-53.82,50.5-83,82.67-73.16C2712.92,962.31,2722.39,1002.33,2706.65,1054Zm-79.25-20.79c-10.28,32.55-9,59.93,6.89,64.78,16.24,5,30.71-15.71,41.34-50.56,9.81-32.21,11-59.34-6.24-64.58C2653.14,977.84,2637.22,1001,2627.4,1033.16Z"/><path class="cls-10" d="M2430.44,933.05v32.76h30.61v18.36h-30.61v32.92H2409.6V984.17h-30.44V965.81h30.44V933.05Z"/></g></g></svg>